<svg xmlns="http://www.w3.org/2000/svg" viewBox="0 0 320 80" role="img" aria-labelledby="gl">
  <title id="gl">Gisheri</title>
  <desc>The Gisheri wordmark, Gish in gold and eri in ink, led by a strung jet bead.</desc>
  <path d="M 0 41 L 70 41" fill="none" stroke="#20180f" stroke-width="3.75" stroke-linecap="round"/><ellipse cx="37" cy="41" rx="25" ry="21.75" fill="#1c1511"/><path d="M 18.5 36 L 32 24.5 L 36.5 32 L 24.5 42 Z" fill="#c8922a"/><path d="M 56.02 46.38 A 20 17.4 0 0 1 34.91 58.3" fill="none" stroke="#3d332b" stroke-width="2.75" stroke-linecap="round"/><ellipse cx="37" cy="41" rx="4.75" ry="6.09" fill="#f7f2ea"/>
  <g transform="translate(80 62) scale(0.65)" fill="#c8922a"><path d="M 66.37 -57.47 A 36 36.5 0 0 0 23.65 -68.47 A 36 36.5 0 0 0 2.44 -29.29 A 36 36.5 0 0 0 34.55 1.33 A 36 36.5 0 0 0 71.83 -22.52 L 60.55 -24.23 A 24 31.5 0 0 1 35.7 -3.65 A 24 31.5 0 0 1 14.3 -30.07 A 24 31.5 0 0 1 28.43 -63.89 A 24 31.5 0 0 1 56.91 -54.39 Z"/><path d="M 38 -28.5 L 74 -28.5 L 74 -21 L 38 -21 Z"/></g>
  <g transform="translate(134.85 62) scale(0.65)" fill="#c8922a"><path d="M 6 -48 L 18 -48 L 18 0 L 6 0 Z"/><path d="M -1 0 L 25 0 L 25 -2 L 19 -3.5 L 5 -3.5 L -1 -2 Z"/><path d="M 0 -48 L 20 -48 L 20 -45.5 L 14 -44.8 L 6 -44.8 L 0 -45.5 Z"/><path d="M 18 -63 A 6 6 0 0 1 12 -57 A 6 6 0 0 1 6 -63 A 6 6 0 0 1 12 -69 A 6 6 0 0 1 18 -63 Z"/></g>
  <g transform="translate(154.44 62) scale(0.65)" fill="#c8922a"><path d="M 31.04 -44.78 A 15 14.5 0 0 0 15.79 -47.6 A 15 14.5 0 0 0 6.12 -35.85 A 15 14.5 0 0 0 12.4 -22.12 L 16.98 -26.22 A 7 9.5 0 0 1 14.06 -35.21 A 7 9.5 0 0 1 18.57 -42.91 A 7 9.5 0 0 1 25.68 -41.06 Z"/><path d="M 12.4 -22.88 A 15 14.5 0 0 1 32.77 -19.99 A 15 14.5 0 0 1 30.97 -0.17 A 15 14.5 0 0 1 10.39 -0.75 L 16.05 -4.28 A 7 9.5 0 0 0 25.65 -3.9 A 7 9.5 0 0 0 26.49 -16.89 A 7 9.5 0 0 0 16.98 -18.78 Z"/><path d="M 32.96 -42.92 A 4.6 4.6 0 0 1 28.36 -38.32 A 4.6 4.6 0 0 1 23.76 -42.92 A 4.6 4.6 0 0 1 28.36 -47.52 A 4.6 4.6 0 0 1 32.96 -42.92 Z"/><path d="M 17.82 -2.51 A 4.6 4.6 0 0 1 13.22 2.09 A 4.6 4.6 0 0 1 8.62 -2.51 A 4.6 4.6 0 0 1 13.22 -7.11 A 4.6 4.6 0 0 1 17.82 -2.51 Z"/></g>
  <g transform="translate(184.48 62) scale(0.65)" fill="#c8922a"><path d="M 6 -72 L 18 -72 L 18 0 L 6 0 Z"/><path d="M -1 0 L 25 0 L 25 -2 L 19 -3.5 L 5 -3.5 L -1 -2 Z"/><path d="M 0 -72 L 22 -72 L 22 -69.5 L 15 -68.7 L 6 -68.7 L 0 -69.5 Z"/><path d="M 12 -35.5 A 19 13 0 0 1 31 -48.5 A 19 13 0 0 1 50 -35.5 L 40 -35.5 A 9 8 0 0 0 31 -43.5 A 9 8 0 0 0 22 -35.5 Z"/><path d="M 40 -35.5 L 50 -35.5 L 50 0 L 40 0 Z"/><path d="M 34 0 L 56 0 L 56 -2 L 51 -3.5 L 39 -3.5 L 34 -2 Z"/></g>
  <g transform="translate(224.97 62) scale(0.65)" fill="#20180f"><path d="M 48 -24 A 23 24.5 0 0 0 28 -48.29 A 23 24.5 0 0 0 2.78 -30.34 A 23 24.5 0 0 0 16.2 -1.36 A 23 24.5 0 0 0 44.92 -11.75 L 37.12 -15 A 14 18 0 0 1 19.64 -7.37 A 14 18 0 0 1 11.48 -28.66 A 14 18 0 0 1 26.83 -41.85 A 14 18 0 0 1 39 -24 Z"/><path d="M 3 -27.5 L 48 -27.5 L 48 -20.5 L 3 -20.5 Z"/></g>
  <g transform="translate(264.15 62) scale(0.65)" fill="#20180f"><path d="M 6 -48 L 18 -48 L 18 0 L 6 0 Z"/><path d="M -1 0 L 25 0 L 25 -2 L 19 -3.5 L 5 -3.5 L -1 -2 Z"/><path d="M 0 -48 L 20 -48 L 20 -45.5 L 14 -44.8 L 6 -44.8 L 0 -45.5 Z"/><path d="M 4 -35.5 A 20 13 0 0 1 14.3 -46.87 A 20 13 0 0 1 34.6 -46.52 L 29.3 -42.28 A 10 8 0 0 0 19.15 -42.5 A 10 8 0 0 0 14 -35.5 Z"/><path d="M 36.95 -44.4 A 5 5 0 0 1 31.95 -39.4 A 5 5 0 0 1 26.95 -44.4 A 5 5 0 0 1 31.95 -49.4 A 5 5 0 0 1 36.95 -44.4 Z"/></g>
  <g transform="translate(292.88 62) scale(0.65)" fill="#20180f"><path d="M 6 -48 L 18 -48 L 18 0 L 6 0 Z"/><path d="M -1 0 L 25 0 L 25 -2 L 19 -3.5 L 5 -3.5 L -1 -2 Z"/><path d="M 0 -48 L 20 -48 L 20 -45.5 L 14 -44.8 L 6 -44.8 L 0 -45.5 Z"/><path d="M 18 -63 A 6 6 0 0 1 12 -57 A 6 6 0 0 1 6 -63 A 6 6 0 0 1 12 -69 A 6 6 0 0 1 18 -63 Z"/></g>
</svg>
