<svg xmlns="http://www.w3.org/2000/svg" viewBox="0 0 800 800" role="img" aria-labelledby="malachiteheartt">
  <title id="malachiteheartt">Malachite Heart Bracelet</title>
  <desc>Fourteen banded green malachite beads on a single strand with a gold rondelle at the clasp.</desc>
  <rect width="800" height="800" fill="#f7f2ea"/>
  <circle cx="411" cy="409" r="296.45" fill="#e3d9c6"/>
  <circle cx="411" cy="409" r="203.55" fill="#f7f2ea"/>
  <circle cx="400" cy="396" r="250" fill="none" stroke="#20180f" stroke-width="1.5"/>
  <g><circle cx="400" cy="146" r="51.61" fill="#2f7a5e" stroke="#20180f" stroke-width="1.4"/><path d="M 451.11 153.18 A 51.61 51.61 0 0 1 400 197.61 A 51.61 51.61 0 0 1 348.89 153.18 L 348.89 149.02 A 51.61 21.68 0 0 0 400 167.68 A 51.61 21.68 0 0 0 451.11 149.02 Z" fill="#63b492" opacity="0.9"/><circle cx="400" cy="146" r="51.61" fill="none" stroke="#20180f" stroke-width="1.4"/><circle cx="382.97" cy="127.94" r="12.39" fill="#5fae8b"/><circle cx="508.47" cy="170.76" r="51.61" fill="#2f7a5e" stroke="#20180f" stroke-width="1.4"/><circle cx="491.44" cy="152.69" r="12.39" fill="#5fae8b"/><circle cx="595.46" cy="240.13" r="51.61" fill="#2f7a5e" stroke="#20180f" stroke-width="1.4"/><path d="M 646.57 247.31 A 51.61 51.61 0 0 1 595.46 291.74 A 51.61 51.61 0 0 1 544.35 247.31 L 544.35 243.14 A 51.61 21.68 0 0 0 595.46 261.8 A 51.61 21.68 0 0 0 646.57 243.14 Z" fill="#63b492" opacity="0.9"/><circle cx="595.46" cy="240.13" r="51.61" fill="none" stroke="#20180f" stroke-width="1.4"/><circle cx="578.43" cy="222.06" r="12.39" fill="#5fae8b"/><circle cx="643.73" cy="340.37" r="51.61" fill="#2f7a5e" stroke="#20180f" stroke-width="1.4"/><circle cx="626.7" cy="322.31" r="12.39" fill="#5fae8b"/><circle cx="643.73" cy="451.63" r="51.61" fill="#2f7a5e" stroke="#20180f" stroke-width="1.4"/><path d="M 694.84 458.81 A 51.61 51.61 0 0 1 643.73 503.24 A 51.61 51.61 0 0 1 592.62 458.81 L 592.62 454.65 A 51.61 21.68 0 0 0 643.73 473.31 A 51.61 21.68 0 0 0 694.84 454.65 Z" fill="#63b492" opacity="0.9"/><circle cx="643.73" cy="451.63" r="51.61" fill="none" stroke="#20180f" stroke-width="1.4"/><circle cx="626.7" cy="433.57" r="12.39" fill="#5fae8b"/><circle cx="595.46" cy="551.87" r="51.61" fill="#2f7a5e" stroke="#20180f" stroke-width="1.4"/><path d="M 595.46 518.06 L 623.17 533.42 L 623.17 564.14 L 595.46 579.5 L 567.75 564.14 L 567.75 533.42 Z" fill="#1e5642" stroke="#c8922a" stroke-width="1.4"/><path d="M 595.46 518.06 L 595.46 579.5" fill="none" stroke="#c8922a" stroke-width="1.1"/><circle cx="508.47" cy="621.24" r="51.61" fill="#2f7a5e" stroke="#20180f" stroke-width="1.4"/><path d="M 559.58 628.43 A 51.61 51.61 0 0 1 508.47 672.85 A 51.61 51.61 0 0 1 457.36 628.43 L 457.36 624.26 A 51.61 21.68 0 0 0 508.47 642.92 A 51.61 21.68 0 0 0 559.58 624.26 Z" fill="#63b492" opacity="0.9"/><circle cx="508.47" cy="621.24" r="51.61" fill="none" stroke="#20180f" stroke-width="1.4"/><circle cx="491.44" cy="603.18" r="12.39" fill="#5fae8b"/><ellipse cx="400" cy="646" rx="28.9" ry="21.39" fill="#c8922a" stroke="#20180f" stroke-width="1.3"/><path d="M 384.1 646 L 415.9 646" fill="none" stroke="#20180f" stroke-width="1"/><circle cx="291.53" cy="621.24" r="51.61" fill="#2f7a5e" stroke="#20180f" stroke-width="1.4"/><path d="M 342.64 628.43 A 51.61 51.61 0 0 1 291.53 672.85 A 51.61 51.61 0 0 1 240.42 628.43 L 240.42 624.26 A 51.61 21.68 0 0 0 291.53 642.92 A 51.61 21.68 0 0 0 342.64 624.26 Z" fill="#63b492" opacity="0.9"/><circle cx="291.53" cy="621.24" r="51.61" fill="none" stroke="#20180f" stroke-width="1.4"/><circle cx="274.5" cy="603.18" r="12.39" fill="#5fae8b"/><circle cx="204.54" cy="551.87" r="51.61" fill="#2f7a5e" stroke="#20180f" stroke-width="1.4"/><circle cx="187.51" cy="533.81" r="12.39" fill="#5fae8b"/><circle cx="156.27" cy="451.63" r="51.61" fill="#2f7a5e" stroke="#20180f" stroke-width="1.4"/><path d="M 207.38 458.81 A 51.61 51.61 0 0 1 156.27 503.24 A 51.61 51.61 0 0 1 105.16 458.81 L 105.16 454.65 A 51.61 21.68 0 0 0 156.27 473.31 A 51.61 21.68 0 0 0 207.38 454.65 Z" fill="#63b492" opacity="0.9"/><circle cx="156.27" cy="451.63" r="51.61" fill="none" stroke="#20180f" stroke-width="1.4"/><circle cx="139.24" cy="433.57" r="12.39" fill="#5fae8b"/><circle cx="156.27" cy="340.37" r="51.61" fill="#2f7a5e" stroke="#20180f" stroke-width="1.4"/><circle cx="139.24" cy="322.31" r="12.39" fill="#5fae8b"/><circle cx="204.54" cy="240.13" r="51.61" fill="#2f7a5e" stroke="#20180f" stroke-width="1.4"/><path d="M 255.65 247.31 A 51.61 51.61 0 0 1 204.54 291.74 A 51.61 51.61 0 0 1 153.43 247.31 L 153.43 243.14 A 51.61 21.68 0 0 0 204.54 261.8 A 51.61 21.68 0 0 0 255.65 243.14 Z" fill="#63b492" opacity="0.9"/><circle cx="204.54" cy="240.13" r="51.61" fill="none" stroke="#20180f" stroke-width="1.4"/><circle cx="187.51" cy="222.06" r="12.39" fill="#5fae8b"/><circle cx="291.53" cy="170.76" r="51.61" fill="#2f7a5e" stroke="#20180f" stroke-width="1.4"/><circle cx="274.5" cy="152.69" r="12.39" fill="#5fae8b"/></g>
</svg>
