<svg xmlns="http://www.w3.org/2000/svg" viewBox="0 0 800 800" role="img" aria-labelledby="sunstonevitalityt">
  <title id="sunstonevitalityt">Sunstone Vitality Bracelet</title>
  <desc>A double strand of amber sunstone over carnelian with a gold spacer at two o'clock.</desc>
  <rect width="800" height="800" fill="#f7f2ea"/>
  <circle cx="411" cy="411" r="304.6" fill="#e3d9c6"/>
  <circle cx="411" cy="411" r="135.66" fill="#f7f2ea"/>
  <circle cx="400" cy="398" r="262" fill="none" stroke="#20180f" stroke-width="1.5"/>
  <circle cx="400" cy="398" r="158" fill="none" stroke="#20180f" stroke-width="1.5"/>
  <g><circle cx="400" cy="136" r="47.33" fill="#d98b3c" stroke="#20180f" stroke-width="1.4"/><circle cx="384.38" cy="119.44" r="11.36" fill="#eeb375"/><circle cx="500.26" cy="155.94" r="47.33" fill="#d98b3c" stroke="#20180f" stroke-width="1.4"/><circle cx="484.64" cy="139.38" r="11.36" fill="#eeb375"/><circle cx="585.26" cy="212.74" r="47.33" fill="#d98b3c" stroke="#20180f" stroke-width="1.4"/><circle cx="569.64" cy="196.17" r="11.36" fill="#eeb375"/><ellipse cx="642.06" cy="297.74" rx="25.56" ry="18.91" fill="#c8922a" stroke="#20180f" stroke-width="1.3"/><path d="M 628 297.74 L 656.11 297.74" fill="none" stroke="#20180f" stroke-width="1"/><circle cx="662" cy="398" r="47.33" fill="#d98b3c" stroke="#20180f" stroke-width="1.4"/><circle cx="646.38" cy="381.44" r="11.36" fill="#eeb375"/><circle cx="642.06" cy="498.26" r="47.33" fill="#d98b3c" stroke="#20180f" stroke-width="1.4"/><circle cx="626.44" cy="481.7" r="11.36" fill="#eeb375"/><circle cx="585.26" cy="583.26" r="47.33" fill="#d98b3c" stroke="#20180f" stroke-width="1.4"/><circle cx="569.64" cy="566.7" r="11.36" fill="#eeb375"/><circle cx="500.26" cy="640.06" r="47.33" fill="#d98b3c" stroke="#20180f" stroke-width="1.4"/><circle cx="484.64" cy="623.49" r="11.36" fill="#eeb375"/><circle cx="400" cy="660" r="47.33" fill="#d98b3c" stroke="#20180f" stroke-width="1.4"/><circle cx="384.38" cy="643.44" r="11.36" fill="#eeb375"/><circle cx="299.74" cy="640.06" r="47.33" fill="#d98b3c" stroke="#20180f" stroke-width="1.4"/><circle cx="284.12" cy="623.49" r="11.36" fill="#eeb375"/><circle cx="214.74" cy="583.26" r="47.33" fill="#d98b3c" stroke="#20180f" stroke-width="1.4"/><circle cx="199.12" cy="566.7" r="11.36" fill="#eeb375"/><circle cx="157.94" cy="498.26" r="47.33" fill="#d98b3c" stroke="#20180f" stroke-width="1.4"/><path d="M 157.94 467.25 L 183.36 481.34 L 183.36 509.51 L 157.94 523.59 L 132.53 509.51 L 132.53 481.34 Z" fill="#b26a1e" stroke="#c8922a" stroke-width="1.4"/><path d="M 157.94 467.25 L 157.94 523.59" fill="none" stroke="#c8922a" stroke-width="1.1"/><circle cx="138" cy="398" r="47.33" fill="#d98b3c" stroke="#20180f" stroke-width="1.4"/><circle cx="122.38" cy="381.44" r="11.36" fill="#eeb375"/><circle cx="157.94" cy="297.74" r="47.33" fill="#d98b3c" stroke="#20180f" stroke-width="1.4"/><circle cx="142.33" cy="281.17" r="11.36" fill="#eeb375"/><circle cx="214.74" cy="212.74" r="47.33" fill="#d98b3c" stroke="#20180f" stroke-width="1.4"/><circle cx="199.12" cy="196.17" r="11.36" fill="#eeb375"/><circle cx="299.74" cy="155.94" r="47.33" fill="#d98b3c" stroke="#20180f" stroke-width="1.4"/><circle cx="284.12" cy="139.38" r="11.36" fill="#eeb375"/></g>
  <g><circle cx="400" cy="240" r="24.82" fill="#c2603a" stroke="#20180f" stroke-width="1.2"/><circle cx="391.81" cy="231.31" r="5.96" fill="#dc9270"/><circle cx="454.04" cy="249.53" r="24.82" fill="#c2603a" stroke="#20180f" stroke-width="1.2"/><circle cx="445.85" cy="240.84" r="5.96" fill="#dc9270"/><circle cx="501.56" cy="276.96" r="24.82" fill="#c2603a" stroke="#20180f" stroke-width="1.2"/><circle cx="493.37" cy="268.28" r="5.96" fill="#dc9270"/><ellipse cx="536.83" cy="319" rx="14.89" ry="11.02" fill="#c8922a" stroke="#20180f" stroke-width="1.3"/><path d="M 528.64 319 L 545.02 319" fill="none" stroke="#20180f" stroke-width="1"/><circle cx="555.6" cy="370.56" r="24.82" fill="#c2603a" stroke="#20180f" stroke-width="1.2"/><circle cx="547.41" cy="361.88" r="5.96" fill="#dc9270"/><circle cx="555.6" cy="425.44" r="24.82" fill="#c2603a" stroke="#20180f" stroke-width="1.2"/><circle cx="547.41" cy="416.75" r="5.96" fill="#dc9270"/><circle cx="536.83" cy="477" r="24.82" fill="#c2603a" stroke="#20180f" stroke-width="1.2"/><circle cx="528.64" cy="468.31" r="5.96" fill="#dc9270"/><circle cx="501.56" cy="519.04" r="24.82" fill="#c2603a" stroke="#20180f" stroke-width="1.2"/><circle cx="493.37" cy="510.35" r="5.96" fill="#dc9270"/><circle cx="454.04" cy="546.47" r="24.82" fill="#c2603a" stroke="#20180f" stroke-width="1.2"/><circle cx="445.85" cy="537.78" r="5.96" fill="#dc9270"/><circle cx="400" cy="556" r="24.82" fill="#c2603a" stroke="#20180f" stroke-width="1.2"/><circle cx="391.81" cy="547.31" r="5.96" fill="#dc9270"/><circle cx="345.96" cy="546.47" r="24.82" fill="#c2603a" stroke="#20180f" stroke-width="1.2"/><circle cx="337.77" cy="537.78" r="5.96" fill="#dc9270"/><circle cx="298.44" cy="519.04" r="24.82" fill="#c2603a" stroke="#20180f" stroke-width="1.2"/><circle cx="290.25" cy="510.35" r="5.96" fill="#dc9270"/><circle cx="263.17" cy="477" r="24.82" fill="#c2603a" stroke="#20180f" stroke-width="1.2"/><circle cx="254.98" cy="468.31" r="5.96" fill="#dc9270"/><circle cx="244.4" cy="425.44" r="24.82" fill="#c2603a" stroke="#20180f" stroke-width="1.2"/><circle cx="236.21" cy="416.75" r="5.96" fill="#dc9270"/><circle cx="244.4" cy="370.56" r="24.82" fill="#c2603a" stroke="#20180f" stroke-width="1.2"/><circle cx="236.21" cy="361.88" r="5.96" fill="#dc9270"/><circle cx="263.17" cy="319" r="24.82" fill="#c2603a" stroke="#20180f" stroke-width="1.2"/><circle cx="254.98" cy="310.31" r="5.96" fill="#dc9270"/><circle cx="298.44" cy="276.96" r="24.82" fill="#c2603a" stroke="#20180f" stroke-width="1.2"/><circle cx="290.25" cy="268.28" r="5.96" fill="#dc9270"/><circle cx="345.96" cy="249.53" r="24.82" fill="#c2603a" stroke="#20180f" stroke-width="1.2"/><circle cx="337.77" cy="240.84" r="5.96" fill="#dc9270"/></g>
</svg>
