<svg xmlns="http://www.w3.org/2000/svg" viewBox="0 0 600 600" role="img" aria-labelledby="g3">
<title id="g3">The station mirror and its bulbs, with the room reflected in it</title>
<defs><clipPath id="arch"><path d="M120 470 L120 270 A180 180 0 0 1 480 270 L480 470 Z"/></clipPath></defs>
<rect x="0" y="0" width="600" height="600" fill="#fbf6ec"/>
<line x1="0" y1="90" x2="600" y2="90" stroke="#e6dec9" stroke-width="2.2"/>

<g fill="#ffffff" stroke="#20180f" stroke-width="2.8">
  <circle cx="97" cy="270" r="11"/>
  <circle cx="112.5" cy="192.3" r="11"/>
  <circle cx="156.5" cy="126.5" r="11"/>
  <circle cx="222.3" cy="82.5" r="11"/>
  <circle cx="300" cy="67" r="11"/>
  <circle cx="377.7" cy="82.5" r="11"/>
  <circle cx="443.5" cy="126.5" r="11"/>
  <circle cx="487.5" cy="192.3" r="11"/>
  <circle cx="503" cy="270" r="11"/>
  <circle cx="97" cy="332" r="11"/>
  <circle cx="97" cy="394" r="11"/>
  <circle cx="503" cy="332" r="11"/>
  <circle cx="503" cy="394" r="11"/>
</g>
<g fill="#e9c9a8"><circle cx="97" cy="270" r="4.5"/><circle cx="112.5" cy="192.3" r="4.5"/><circle cx="156.5" cy="126.5" r="4.5"/><circle cx="222.3" cy="82.5" r="4.5"/><circle cx="300" cy="67" r="4.5"/><circle cx="377.7" cy="82.5" r="4.5"/><circle cx="443.5" cy="126.5" r="4.5"/><circle cx="487.5" cy="192.3" r="4.5"/><circle cx="503" cy="270" r="4.5"/><circle cx="97" cy="332" r="4.5"/><circle cx="97" cy="394" r="4.5"/><circle cx="503" cy="332" r="4.5"/><circle cx="503" cy="394" r="4.5"/></g>

<g clip-path="url(#arch)">
  <rect x="110" y="80" width="380" height="400" fill="#ffffff"/>
  <rect x="110" y="392" width="380" height="88" fill="#f1ead9"/>
  <line x1="110" y1="392" x2="490" y2="392" stroke="#70675e" stroke-width="2.4"/>
  <rect x="146" y="188" width="112" height="124" rx="6" fill="#f1ead9" stroke="#70675e" stroke-width="2.6"/>
  <line x1="202" y1="188" x2="202" y2="312" stroke="#70675e" stroke-width="2"/>
  <line x1="146" y1="250" x2="258" y2="250" stroke="#70675e" stroke-width="2"/>
  <rect x="140" y="312" width="124" height="10" rx="4" fill="#e6dec9" stroke="#70675e" stroke-width="2.2"/>
  <path d="M292 176 L276 202 L280 306 L322 306 L318 202 Z" fill="#d6cdb4" stroke="#70675e" stroke-width="2.4"/>
  <path d="M292 176 L284 190 L294 198" fill="none" stroke="#70675e" stroke-width="2"/>
  <line x1="290" y1="146" x2="292" y2="176" stroke="#70675e" stroke-width="2.4"/>
  <path d="M282 148 q10 -10 18 0" fill="none" stroke="#70675e" stroke-width="2.4"/>
  <rect x="356" y="248" width="90" height="114" rx="18" fill="#e6dec9" stroke="#70675e" stroke-width="2.6"/>
  <rect x="378" y="220" width="46" height="30" rx="11" fill="#e6dec9" stroke="#70675e" stroke-width="2.6"/>
  <rect x="390" y="362" width="22" height="34" fill="#f1ead9" stroke="#70675e" stroke-width="2.4"/>
  <rect x="368" y="394" width="66" height="12" rx="5" fill="#e6dec9" stroke="#70675e" stroke-width="2.4"/>
  <line x1="374" y1="278" x2="428" y2="278" stroke="#d6cdb4" stroke-width="2.2"/>
  <line x1="374" y1="304" x2="428" y2="304" stroke="#d6cdb4" stroke-width="2.2"/>
  <rect x="336" y="290" width="24" height="12" rx="5" fill="#e6dec9" stroke="#70675e" stroke-width="2.2"/>
  <rect x="442" y="290" width="24" height="12" rx="5" fill="#e6dec9" stroke="#70675e" stroke-width="2.2"/>
  <line x1="192" y1="120" x2="192" y2="150" stroke="#70675e" stroke-width="2.2"/>
  <path d="M176 178 L186 150 L210 150 L220 178 Z" fill="#f1ead9" stroke="#70675e" stroke-width="2.4"/>
  <rect x="176" y="175" width="44" height="6" rx="3" fill="#e9c9a8" stroke="#70675e" stroke-width="1.8"/>
  <rect x="118" y="360" width="172" height="13" rx="4" fill="#fbf6ec" stroke="#70675e" stroke-width="2.4"/>
  <rect x="120" y="361" width="168" height="3" fill="#8f5d33"/>
  <rect x="152" y="334" width="18" height="26" rx="4" fill="#ffffff" stroke="#70675e" stroke-width="2.2"/>
  <rect x="182" y="342" width="15" height="18" rx="4" fill="#ffffff" stroke="#70675e" stroke-width="2.2"/>
  <rect x="212" y="338" width="17" height="22" rx="4" fill="#e9c9a8" stroke="#70675e" stroke-width="2.2"/>
</g>
<path d="M120 470 L120 270 A180 180 0 0 1 480 270 L480 470 Z" fill="none" stroke="#20180f" stroke-width="4"/>
<path d="M134 470 L134 272 A166 166 0 0 1 466 272 L466 470" fill="none" stroke="#e6dec9" stroke-width="2.2"/>

<rect x="0" y="470" width="600" height="28" fill="#fbf6ec"/>
<rect x="0" y="471" width="600" height="5" fill="#8f5d33"/>
<line x1="0" y1="470" x2="600" y2="470" stroke="#20180f" stroke-width="3.5"/>
<line x1="0" y1="498" x2="600" y2="498" stroke="#20180f" stroke-width="3"/>
<rect x="0" y="498" width="600" height="102" fill="#f1ead9"/>
<g stroke="#d6cdb4" stroke-width="2.6"><line x1="200" y1="498" x2="200" y2="600"/><line x1="400" y1="498" x2="400" y2="600"/><line x1="0" y1="552" x2="600" y2="552"/></g>
<g fill="#8f5d33"><rect x="76" y="522" width="48" height="7" rx="3.5"/><rect x="276" y="522" width="48" height="7" rx="3.5"/><rect x="476" y="522" width="48" height="7" rx="3.5"/></g>
<g fill="#ffffff" stroke="#20180f" stroke-width="2.6">
  <rect x="502" y="442" width="70" height="12" rx="5"/><rect x="508" y="430" width="60" height="12" rx="5"/>
</g>
</svg>
